<svg width="270" height="34" viewBox="0 0 270 34" fill="none" xmlns="http://www.w3.org/2000/svg">
<path d="M13.168 33.836C11.1147 33.836 9.31067 33.484 7.756 32.78C6.23067 32.076 4.95467 31.1373 3.928 29.964C2.93067 28.7613 2.168 27.4267 1.64 25.96C1.14133 24.4933 0.892 22.9973 0.892 21.472V20.636C0.892 19.052 1.14133 17.5267 1.64 16.06C2.168 14.564 2.93067 13.244 3.928 12.1C4.95467 10.9267 6.216 10.0027 7.712 9.328C9.208 8.624 10.9387 8.272 12.904 8.272C15.4853 8.272 17.6413 8.844 19.372 9.988C21.132 11.1027 22.452 12.584 23.332 14.432C24.212 16.2507 24.652 18.216 24.652 20.328V22.528H3.488V18.788H20.824L18.932 20.636C18.932 19.1107 18.712 17.8053 18.272 16.72C17.832 15.6347 17.1573 14.7987 16.248 14.212C15.368 13.6253 14.2533 13.332 12.904 13.332C11.5547 13.332 10.4107 13.64 9.472 14.256C8.53333 14.872 7.81467 15.7667 7.316 16.94C6.84667 18.084 6.612 19.4627 6.612 21.076C6.612 22.572 6.84667 23.9067 7.316 25.08C7.78533 26.224 8.504 27.1333 9.472 27.808C10.44 28.4533 11.672 28.776 13.168 28.776C14.664 28.776 15.8813 28.4827 16.82 27.896C17.7587 27.28 18.36 26.532 18.624 25.652H24.256C23.904 27.2947 23.2293 28.732 22.232 29.964C21.2347 31.196 19.9587 32.1493 18.404 32.824C16.8787 33.4987 15.1333 33.836 13.168 33.836ZM40.1452 33.308C37.9452 33.308 36.1265 33.0293 34.6892 32.472C33.2812 31.8853 32.2252 30.9173 31.5212 29.568C30.8172 28.1893 30.4652 26.3413 30.4652 24.024L30.5092 2.376H36.2292L36.1852 24.42C36.1852 25.5933 36.4932 26.5027 37.1092 27.148C37.7545 27.764 38.6638 28.072 39.8372 28.072H43.5772V33.308H40.1452ZM26.6812 13.596V9.108H43.5772V13.596H26.6812ZM48.7104 33V0.879999H54.8264V19.624H53.7704C53.7704 17.2187 54.0784 15.18 54.6944 13.508C55.3104 11.836 56.2197 10.56 57.4224 9.68C58.6544 8.8 60.209 8.36 62.0864 8.36H62.3504C65.0784 8.36 67.1464 9.29867 68.5544 11.176C69.9624 13.0533 70.6664 15.7813 70.6664 19.36V33H64.5504V18.788C64.5504 17.2627 64.1104 16.06 63.2304 15.18C62.3797 14.3 61.2504 13.86 59.8424 13.86C58.3464 13.86 57.129 14.3587 56.1904 15.356C55.281 16.324 54.8264 17.6 54.8264 19.184V33H48.7104ZM91.7176 33V25.916H90.7056V18.04C90.7056 16.6613 90.3683 15.6347 89.6936 14.96C89.019 14.2853 87.9776 13.948 86.5696 13.948C85.8363 13.948 84.9563 13.9627 83.9296 13.992C82.903 14.0213 81.8616 14.0653 80.8056 14.124C79.779 14.1533 78.855 14.1973 78.0336 14.256V9.064C78.7083 9.00533 79.471 8.94667 80.3216 8.888C81.1723 8.82933 82.0376 8.8 82.9176 8.8C83.827 8.77067 84.6776 8.756 85.4696 8.756C87.9336 8.756 89.9723 9.07867 91.5856 9.724C93.2283 10.3693 94.4603 11.3813 95.2816 12.76C96.1323 14.1387 96.5576 15.9427 96.5576 18.172V33H91.7176ZM84.0176 33.616C82.287 33.616 80.7616 33.308 79.4416 32.692C78.151 32.076 77.139 31.196 76.4056 30.052C75.7016 28.908 75.3496 27.5293 75.3496 25.916C75.3496 24.156 75.775 22.7187 76.6256 21.604C77.5056 20.4893 78.723 19.6533 80.2776 19.096C81.8616 18.5387 83.7096 18.26 85.8216 18.26H91.3656V21.912H85.7336C84.3256 21.912 83.2403 22.264 82.4776 22.968C81.7443 23.6427 81.3776 24.5227 81.3776 25.608C81.3776 26.6933 81.7443 27.5733 82.4776 28.248C83.2403 28.9227 84.3256 29.26 85.7336 29.26C86.5843 29.26 87.3616 29.1133 88.0656 28.82C88.799 28.4973 89.4003 27.9693 89.8696 27.236C90.3683 26.4733 90.647 25.4467 90.7056 24.156L92.2016 25.872C92.055 27.544 91.6443 28.952 90.9696 30.096C90.3243 31.24 89.415 32.12 88.2416 32.736C87.0976 33.3227 85.6896 33.616 84.0176 33.616ZM103.109 33V9.108H107.949V19.36H107.509C107.509 16.9253 107.831 14.9013 108.477 13.288C109.122 11.6453 110.075 10.4133 111.337 9.592C112.627 8.77067 114.226 8.36 116.133 8.36H116.397C119.242 8.36 121.398 9.284 122.865 11.132C124.331 12.9507 125.065 15.6787 125.065 19.316V33H118.949V18.788C118.949 17.3213 118.523 16.1333 117.673 15.224C116.851 14.3147 115.707 13.86 114.241 13.86C112.745 13.86 111.527 14.3293 110.589 15.268C109.679 16.1773 109.225 17.4093 109.225 18.964V33H103.109ZM149.1 33.66C146.225 33.66 144.011 33 142.456 31.68C140.931 30.36 140.153 28.6733 140.124 26.62H142.412C142.412 27.94 142.925 29.0987 143.952 30.096C145.008 31.064 146.724 31.548 149.1 31.548C151.417 31.548 153.119 31.064 154.204 30.096C155.289 29.0987 155.832 27.9253 155.832 26.576C155.832 25.256 155.333 24.244 154.336 23.54C153.368 22.836 152.048 22.396 150.376 22.22L147.648 21.912C145.624 21.6773 144.011 21.0467 142.808 20.02C141.635 18.9933 141.048 17.6 141.048 15.84C141.048 14.5787 141.371 13.4493 142.016 12.452C142.661 11.4547 143.585 10.6627 144.788 10.076C146.02 9.48933 147.457 9.196 149.1 9.196C151.505 9.196 153.441 9.78267 154.908 10.956C156.404 12.1293 157.167 13.728 157.196 15.752H154.908C154.937 14.4907 154.439 13.4347 153.412 12.584C152.415 11.7333 150.977 11.308 149.1 11.308C147.135 11.308 145.668 11.7627 144.7 12.672C143.761 13.5813 143.292 14.652 143.292 15.884C143.292 16.9107 143.659 17.7907 144.392 18.524C145.155 19.2573 146.299 19.712 147.824 19.888L150.552 20.196C152.723 20.4013 154.512 21.032 155.92 22.088C157.357 23.144 158.076 24.6547 158.076 26.62C158.076 27.94 157.709 29.128 156.976 30.184C156.272 31.24 155.26 32.0907 153.94 32.736C152.62 33.352 151.007 33.66 149.1 33.66ZM165.223 33V9.9H167.071V19.36H166.543C166.543 17.3653 166.837 15.62 167.423 14.124C168.039 12.5987 168.949 11.4107 170.151 10.56C171.354 9.70933 172.879 9.284 174.727 9.284H174.859C176.678 9.284 178.189 9.70933 179.391 10.56C180.594 11.3813 181.474 12.5547 182.031 14.08C182.618 15.576 182.911 17.336 182.911 19.36H182.031C182.031 17.3653 182.325 15.62 182.911 14.124C183.527 12.5987 184.437 11.4107 185.639 10.56C186.871 9.70933 188.411 9.284 190.259 9.284H190.391C192.21 9.284 193.721 9.70933 194.923 10.56C196.155 11.3813 197.065 12.5547 197.651 14.08C198.238 15.576 198.531 17.336 198.531 19.36V33H196.199V18.832C196.199 16.632 195.657 14.8573 194.571 13.508C193.515 12.1293 191.946 11.44 189.863 11.44C187.751 11.44 186.079 12.144 184.847 13.552C183.645 14.96 183.043 16.7933 183.043 19.052V33H180.711V18.832C180.711 16.632 180.169 14.8573 179.083 13.508C178.027 12.1293 176.458 11.44 174.375 11.44C172.263 11.44 170.591 12.144 169.359 13.552C168.157 14.96 167.555 16.7933 167.555 19.052V33H165.223ZM208.522 33V9.9H210.898V33H208.522ZM204.694 11.924V9.9H210.898V11.924H204.694ZM208.742 5.06C208.126 5.06 207.656 4.89866 207.334 4.576C207.011 4.224 206.85 3.784 206.85 3.256C206.85 2.69866 207.011 2.244 207.334 1.892C207.656 1.54 208.14 1.364 208.786 1.364C209.402 1.364 209.871 1.54 210.194 1.892C210.516 2.244 210.678 2.69866 210.678 3.256C210.678 3.784 210.516 4.224 210.194 4.576C209.9 4.89866 209.416 5.06 208.742 5.06ZM227.709 33.22C226.271 33.22 225.01 33.0147 223.925 32.604C222.839 32.164 222.003 31.4307 221.417 30.404C220.83 29.3773 220.537 27.9987 220.537 26.268V2.376H222.825V26.664C222.825 28.072 223.206 29.172 223.969 29.964C224.761 30.7267 225.846 31.108 227.225 31.108H231.537V33.22H227.709ZM216.137 11.792V9.9H231.537V11.792H216.137ZM238.356 33V0.879999H240.688V18.04L239.852 19.536C239.852 17.512 240.16 15.7373 240.776 14.212C241.422 12.6573 242.39 11.4547 243.68 10.604C244.971 9.724 246.599 9.284 248.564 9.284H248.652C251.527 9.284 253.698 10.1933 255.164 12.012C256.631 13.8013 257.364 16.2507 257.364 19.36V33H254.988V18.832C254.988 16.6027 254.387 14.8133 253.184 13.464C251.982 12.1147 250.28 11.44 248.08 11.44C245.822 11.44 244.018 12.1587 242.668 13.596C241.348 15.004 240.688 16.852 240.688 19.14V33H238.356Z" fill="white"/>
<path d="M265.19 33V28.644H269.326V33H265.19Z" fill="#F13024"/>
</svg>
